# xmcd
#
# Track frame offsets: 
#        150
#        9285
#        20214
#        34833
#        45082
#        59259
#        73969
#        84159
#        95553
#        111489
#        130221
#        156641
#        165891
#        178577
#        188237
#        202252
#        211634
#        220234
#        229602
#        244172
#        255612
#
# Disc length: 3547 seconds
#
# Revision: 0
# Processed by: cddbd v1.5.2PL0 Copyright (c) Steve Scherf et al.
# Submitted via: ExactAudioCopy v1.0b3
#
DISCID=240dd915
DTITLE=Various Artist - Classic African American Songsters from Smithsonian F
DTITLE=olkways
DYEAR=2014
DGENRE=Blues
TTITLE0=Jay Summerour, Warner Williams  - Bring It on Down to My House
TTITLE1=Pink Anderson - Talking Blues
TTITLE2=John Jackson - Nobody's Business (If I Do)
TTITLE3=Little Brother Montgomery - Alabama Bound
TTITLE4=Brownie McGhee - Pallet on the Floor
TTITLE5=Bill Williams - Chicken You Can't Roost Too High for Me
TTITLE6=Lead Belly - My Hula Love
TTITLE7=Reverend Gary Davis - Candy Man
TTITLE8=John Cephas, Phil Wiggins - Going Down the Road Feeling Bad
TTITLE9=Peg Leg Sam - Froggy Went A-Courting
TTITLE10=Mississippi John Hurt - Monday Morning Blues
TTITLE11=Pink Anderson - The Boys of Your Uncle Sam
TTITLE12=Brownie McGhee - Raise a Ruckus Tonight
TTITLE13=Marvin Foddrell - Reno Factory
TTITLE14=John Jackson - Don't Let Your Deal Go Down
TTITLE15=Jay Summerour , Warner Williams - Honeysuckle Rose
TTITLE16=Big Bill Broonzy - Bill Bailey
TTITLE17=Bill Williams - When the Roses Bloom Again
TTITLE18=Peg Leg Sam - Straighten up and Fly Right
TTITLE19=Snooks Eaglin - Careless Love
TTITLE20=Martin, Bogan and Armstrong - They Cut Down the Old Pine Tree
EXTD=
EXTT0=
EXTT1=
EXTT2=
EXTT3=
EXTT4=
EXTT5=
EXTT6=
EXTT7=
EXTT8=
EXTT9=
EXTT10=
EXTT11=
EXTT12=
EXTT13=
EXTT14=
EXTT15=
EXTT16=
EXTT17=
EXTT18=
EXTT19=
EXTT20=
PLAYORDER=
